<svg width="32" height="32" viewBox="0 0 32 32" fill="none" xmlns="http://www.w3.org/2000/svg">
<path d="M16 4C22.6276 4 28 9.3724 28 16C28 22.6276 22.6276 28 16 28C9.3724 28 4 22.6276 4 16C4 9.3724 9.3724 4 16 4ZM16 6.4C10.6984 6.4 6.4 10.6984 6.4 16C6.4 21.3016 10.6984 25.6 16 25.6C21.3016 25.6 25.6 21.3016 25.6 16C25.6 10.6984 21.3016 6.4 16 6.4ZM20.5996 10.4044C20.884 10.2052 21.2704 10.2388 21.5152 10.4848C21.76 10.7296 21.7912 11.116 21.5908 11.3968C18.9748 15.052 17.5348 17.0104 17.2732 17.2732C16.57 17.9752 15.43 17.9752 14.7268 17.2732C14.0248 16.57 14.0248 15.43 14.7268 14.7268C15.1756 14.2792 17.1328 12.838 20.5996 10.4044ZM22.6 14.8C23.2624 14.8 23.8 15.3376 23.8 16C23.8 16.6624 23.2624 17.2 22.6 17.2C21.9376 17.2 21.4 16.6624 21.4 16C21.4 15.3376 21.9376 14.8 22.6 14.8ZM9.4 14.8C10.0624 14.8 10.6 15.3376 10.6 16C10.6 16.6624 10.0624 17.2 9.4 17.2C8.7376 17.2 8.2 16.6624 8.2 16C8.2 15.3376 8.7376 14.8 9.4 14.8ZM12.1816 10.4848C12.6496 10.9528 12.6496 11.7124 12.1816 12.1816C11.7136 12.6496 10.9528 12.6496 10.4848 12.1816C10.0168 11.7136 10.0168 10.9528 10.4848 10.4848C10.9528 10.0168 11.7124 10.0168 12.1816 10.4848ZM16 8.2C16.6624 8.2 17.2 8.7376 17.2 9.4C17.2 10.0624 16.6624 10.6 16 10.6C15.3376 10.6 14.8 10.0624 14.8 9.4C14.8 8.7376 15.3376 8.2 16 8.2Z" fill="#9A9A9A"/>
</svg>
