<svg width="20" height="20" viewBox="0 0 20 20" fill="none" xmlns="http://www.w3.org/2000/svg">
<path d="M14.125 16.75C13.4288 16.75 12.7611 16.4734 12.2688 15.9812C11.7766 15.4889 11.5 14.8212 11.5 14.125C11.5 13.4288 11.7766 12.7611 12.2688 12.2688C12.7611 11.7766 13.4288 11.5 14.125 11.5C14.8212 11.5 15.4889 11.7766 15.9812 12.2688C16.4734 12.7611 16.75 13.4288 16.75 14.125C16.75 14.8212 16.4734 15.4889 15.9812 15.9812C15.4889 16.4734 14.8212 16.75 14.125 16.75ZM14.125 15.25C14.4234 15.25 14.7095 15.1315 14.9205 14.9205C15.1315 14.7095 15.25 14.4234 15.25 14.125C15.25 13.8266 15.1315 13.5405 14.9205 13.3295C14.7095 13.1185 14.4234 13 14.125 13C13.8266 13 13.5405 13.1185 13.3295 13.3295C13.1185 13.5405 13 13.8266 13 14.125C13 14.4234 13.1185 14.7095 13.3295 14.9205C13.5405 15.1315 13.8266 15.25 14.125 15.25ZM5.875 8.5C5.53028 8.5 5.18894 8.4321 4.87046 8.30018C4.55198 8.16827 4.2626 7.97491 4.01884 7.73116C3.77509 7.4874 3.58173 7.19802 3.44982 6.87954C3.3179 6.56106 3.25 6.21972 3.25 5.875C3.25 5.53028 3.3179 5.18894 3.44982 4.87046C3.58173 4.55198 3.77509 4.2626 4.01884 4.01884C4.2626 3.77509 4.55198 3.58173 4.87046 3.44982C5.18894 3.3179 5.53028 3.25 5.875 3.25C6.57119 3.25 7.23887 3.52656 7.73116 4.01884C8.22344 4.51113 8.5 5.17881 8.5 5.875C8.5 6.57119 8.22344 7.23887 7.73116 7.73116C7.23887 8.22344 6.57119 8.5 5.875 8.5ZM5.875 7C6.17337 7 6.45952 6.88147 6.6705 6.6705C6.88147 6.45952 7 6.17337 7 5.875C7 5.57663 6.88147 5.29048 6.6705 5.0795C6.45952 4.86853 6.17337 4.75 5.875 4.75C5.57663 4.75 5.29048 4.86853 5.0795 5.0795C4.86853 5.29048 4.75 5.57663 4.75 5.875C4.75 6.17337 4.86853 6.45952 5.0795 6.6705C5.29048 6.88147 5.57663 7 5.875 7ZM15.3033 3.63625L16.3638 4.69675L4.6975 16.3638L3.637 15.3033L15.3025 3.63625H15.3033Z" fill="#A4A4A4"/>
</svg>
