<svg width="24" height="24" viewBox="0 0 24 24" fill="none" xmlns="http://www.w3.org/2000/svg">
<path d="M12 21.6C14.5461 21.6 16.9879 20.5886 18.7882 18.7882C20.5886 16.9879 21.6 14.5461 21.6 12C21.6 9.45392 20.5886 7.01212 18.7882 5.21178C16.9879 3.41143 14.5461 2.4 12 2.4C9.45392 2.4 7.01212 3.41143 5.21178 5.21178C3.41143 7.01212 2.4 9.45392 2.4 12C2.4 14.5461 3.41143 16.9879 5.21178 18.7882C7.01212 20.5886 9.45392 21.6 12 21.6V21.6ZM12 24C5.3724 24 0 18.6276 0 12C0 5.3724 5.3724 0 12 0C18.6276 0 24 5.3724 24 12C24 18.6276 18.6276 24 12 24ZM8.268 13.404L5.2704 12.4692C4.6224 12.2712 4.6188 11.8248 5.4156 11.5044L17.0952 6.9924C17.7732 6.7164 18.1572 7.0656 17.9376 7.9404L15.9492 17.3244C15.81 17.9928 15.408 18.1524 14.85 17.844L11.7888 15.5784L10.362 16.956C10.2156 17.0976 10.0968 17.2188 9.8712 17.2488C9.6468 17.28 9.462 17.2128 9.3264 16.8408L8.2824 13.3956L8.268 13.4052V13.404Z" fill="#727272"/>
</svg>
