<svg width="24" height="20" viewBox="0 0 24 20" fill="none" xmlns="http://www.w3.org/2000/svg">
<path d="M21.1272 3.594C21.036 3.2364 20.7768 2.9664 20.4804 2.8836C19.956 2.736 17.4 2.4 12 2.4C6.6 2.4 4.0464 2.736 3.5172 2.8836C3.2244 2.9652 2.9652 3.2352 2.8728 3.594C2.742 4.1028 2.4 6.2352 2.4 9.6C2.4 12.9648 2.742 15.096 2.8728 15.6072C2.964 15.9636 3.2232 16.2336 3.5184 16.3152C4.0464 16.464 6.6 16.8 12 16.8C17.4 16.8 19.9548 16.464 20.4828 16.3164C20.7756 16.2348 21.0348 15.9648 21.1272 15.606C21.258 15.0972 21.6 12.96 21.6 9.6C21.6 6.24 21.258 4.104 21.1272 3.594ZM23.4516 2.9976C24 5.136 24 9.6 24 9.6C24 9.6 24 14.064 23.4516 16.2024C23.1468 17.3844 22.2552 18.3144 21.126 18.6288C19.0752 19.2 12 19.2 12 19.2C12 19.2 4.9284 19.2 2.874 18.6288C1.74 18.3096 0.8496 17.3808 0.5484 16.2024C3.57628e-08 14.064 0 9.6 0 9.6C0 9.6 3.57628e-08 5.136 0.5484 2.9976C0.8532 1.8156 1.7448 0.8856 2.874 0.5712C4.9284 -2.14577e-07 12 0 12 0C12 0 19.0752 -2.14577e-07 21.126 0.5712C22.26 0.8904 23.1504 1.8192 23.4516 2.9976V2.9976ZM9.6 13.8V5.4L16.8 9.6L9.6 13.8Z" fill="#727272"/>
</svg>
