<svg width="32" height="32" viewBox="0 0 32 32" fill="none" xmlns="http://www.w3.org/2000/svg">
<path d="M4 17.2H11.2V26.8H4V17.2ZM20.8 11.2H28V26.8H20.8V11.2ZM12.4 5.19995H19.6V26.8H12.4V5.19995ZM6.4 19.6V24.4H8.8V19.6H6.4ZM14.8 7.59995V24.4H17.2V7.59995H14.8ZM23.2 13.6V24.4H25.6V13.6H23.2Z" fill="#9A9A9A"/>
<path d="M4 17.2H11.2V26.8H4V17.2ZM20.8 11.2H28V26.8H20.8V11.2ZM12.4 5.19995H19.6V26.8H12.4V5.19995ZM6.4 19.6V24.4H8.8V19.6H6.4ZM14.8 7.59995V24.4H17.2V7.59995H14.8ZM23.2 13.6V24.4H25.6V13.6H23.2Z" fill="url(#paint0_linear_740_3522)"/>
<defs>
<linearGradient id="paint0_linear_740_3522" x1="16" y1="5.19995" x2="16" y2="26.8" gradientUnits="userSpaceOnUse">
<stop stop-color="#34C759"/>
<stop offset="1" stop-color="#008B1D"/>
</linearGradient>
</defs>
</svg>
