<svg width="32" height="32" viewBox="0 0 32 32" fill="none" xmlns="http://www.w3.org/2000/svg">
<path d="M17.125 8.5C17.125 8.83319 16.9802 9.13254 16.75 9.33854V10.75H20.5C21.7427 10.75 22.75 11.7574 22.75 13V20.5C22.75 21.7427 21.7427 22.75 20.5 22.75H11.5C10.2574 22.75 9.25 21.7427 9.25 20.5V13C9.25 11.7574 10.2574 10.75 11.5 10.75H15.25V9.33854C15.0198 9.13254 14.875 8.83319 14.875 8.5C14.875 7.87868 15.3787 7.375 16 7.375C16.6213 7.375 17.125 7.87868 17.125 8.5ZM11.5 12.25C11.0858 12.25 10.75 12.5858 10.75 13V20.5C10.75 20.9142 11.0858 21.25 11.5 21.25H20.5C20.9142 21.25 21.25 20.9142 21.25 20.5V13C21.25 12.5858 20.9142 12.25 20.5 12.25H16.75H15.25H11.5ZM8.5 14.5H7V19H8.5V14.5ZM23.5 14.5H25V19H23.5V14.5ZM13.75 17.875C14.3713 17.875 14.875 17.3713 14.875 16.75C14.875 16.1287 14.3713 15.625 13.75 15.625C13.1287 15.625 12.625 16.1287 12.625 16.75C12.625 17.3713 13.1287 17.875 13.75 17.875ZM18.25 17.875C18.8713 17.875 19.375 17.3713 19.375 16.75C19.375 16.1287 18.8713 15.625 18.25 15.625C17.6287 15.625 17.125 16.1287 17.125 16.75C17.125 17.3713 17.6287 17.875 18.25 17.875Z" fill="#9A9A9A"/>
</svg>
