<svg width="32" height="32" viewBox="0 0 32 32" fill="none" xmlns="http://www.w3.org/2000/svg">
<path d="M8.79961 27.4001C6.48001 27.4001 4.59961 25.5197 4.59961 23.2001C4.59961 20.8805 6.48001 19.0001 8.79961 19.0001C10.7016 19.0001 12.3084 20.2649 12.8256 22.0001H19.5996V19.6001H21.9996V12.6905L19.308 10.0001H12.3996V12.4001H5.19961V5.20008H12.3996V7.60008H19.308L23.1996 3.70728L28.2912 8.80008L24.3996 12.6893V19.6001H26.7996V26.8001H19.5996V24.4001H12.8256C12.3096 26.1353 10.7016 27.4001 8.79961 27.4001ZM8.79961 21.4001C7.80601 21.4001 6.99961 22.2065 6.99961 23.2001C6.99961 24.1937 7.80601 25.0001 8.79961 25.0001C9.79321 25.0001 10.5996 24.1937 10.5996 23.2001C10.5996 22.2065 9.79321 21.4001 8.79961 21.4001ZM24.3996 22.0001H21.9996V24.4001H24.3996V22.0001ZM23.1996 7.10328L21.5028 8.80008L23.1996 10.4969L24.8964 8.80008L23.1996 7.10328ZM9.99961 7.60008H7.59961V10.0001H9.99961V7.60008Z" fill="#9A9A9A"/>
</svg>
