<svg width="32" height="32" viewBox="0 0 32 32" fill="none" xmlns="http://www.w3.org/2000/svg">
<path d="M5.2 5.19995H26.8C27.1183 5.19995 27.4235 5.32638 27.6485 5.55142C27.8736 5.77647 28 6.08169 28 6.39995V25.6C28 25.9182 27.8736 26.2234 27.6485 26.4485C27.4235 26.6735 27.1183 26.8 26.8 26.8H5.2C4.88174 26.8 4.57652 26.6735 4.35147 26.4485C4.12643 26.2234 4 25.9182 4 25.6V6.39995C4 6.08169 4.12643 5.77647 4.35147 5.55142C4.57652 5.32638 4.88174 5.19995 5.2 5.19995V5.19995ZM6.4 7.59995V24.4H25.6V7.59995H6.4ZM10 17.2H12.4V22H10V17.2ZM14.8 9.99995H17.2V22H14.8V9.99995ZM19.6 13.6H22V22H19.6V13.6Z" fill="#9A9A9A"/>
</svg>
