<svg width="20" height="20" viewBox="0 0 20 20" fill="none" xmlns="http://www.w3.org/2000/svg">
<path d="M6.875 4.375V3.125H8.125V4.375H11.875V3.125H13.125V4.375H15.625C15.9702 4.375 16.25 4.65482 16.25 5V8.125H15V5.625H13.125V6.875H11.875V5.625H8.125V6.875H6.875V5.625H5V14.375H8.75V15.625H4.375C4.02983 15.625 3.75 15.3452 3.75 15V5C3.75 4.65482 4.02983 4.375 4.375 4.375H6.875ZM13.125 10C11.7443 10 10.625 11.1193 10.625 12.5C10.625 13.8807 11.7443 15 13.125 15C14.5057 15 15.625 13.8807 15.625 12.5C15.625 11.1193 14.5057 10 13.125 10ZM9.375 12.5C9.375 10.4289 11.0539 8.75 13.125 8.75C15.1961 8.75 16.875 10.4289 16.875 12.5C16.875 14.5711 15.1961 16.25 13.125 16.25C11.0539 16.25 9.375 14.5711 9.375 12.5ZM12.5 10.625V12.7589L13.9331 14.1919L14.8169 13.3081L13.75 12.2411V10.625H12.5Z" fill="#A4A4A4"/>
</svg>
