<svg width="20" height="20" viewBox="0 0 20 20" fill="none" xmlns="http://www.w3.org/2000/svg">
<path d="M9.375 3.125V3.75H6.875C5.83947 3.75 5 4.58947 5 5.625V7.5C5 9.22587 6.39911 10.625 8.125 10.625H11.875C13.6009 10.625 15 9.22587 15 7.5V5.625C15 4.58947 14.1606 3.75 13.125 3.75H10.625V3.125H9.375ZM6.25 5.625C6.25 5.27982 6.52982 5 6.875 5H13.125C13.4702 5 13.75 5.27982 13.75 5.625V7.5C13.75 8.53553 12.9106 9.375 11.875 9.375H8.125C7.08947 9.375 6.25 8.53553 6.25 7.5V5.625ZM8.4375 8.125C8.95525 8.125 9.375 7.70527 9.375 7.1875C9.375 6.66973 8.95525 6.25 8.4375 6.25C7.91973 6.25 7.5 6.66973 7.5 7.1875C7.5 7.70527 7.91973 8.125 8.4375 8.125ZM11.5625 8.125C12.0802 8.125 12.5 7.70527 12.5 7.1875C12.5 6.66973 12.0802 6.25 11.5625 6.25C11.0448 6.25 10.625 6.66973 10.625 7.1875C10.625 7.70527 11.0448 8.125 11.5625 8.125ZM6.25 16.25C6.25 14.1789 7.92893 12.5 10 12.5C12.0711 12.5 13.75 14.1789 13.75 16.25H15C15 13.4886 12.7614 11.25 10 11.25C7.23857 11.25 5 13.4886 5 16.25H6.25Z" fill="#9A9A9A"/>
<path d="M9.375 3.125V3.75H6.875C5.83947 3.75 5 4.58947 5 5.625V7.5C5 9.22587 6.39911 10.625 8.125 10.625H11.875C13.6009 10.625 15 9.22587 15 7.5V5.625C15 4.58947 14.1606 3.75 13.125 3.75H10.625V3.125H9.375ZM6.25 5.625C6.25 5.27982 6.52982 5 6.875 5H13.125C13.4702 5 13.75 5.27982 13.75 5.625V7.5C13.75 8.53553 12.9106 9.375 11.875 9.375H8.125C7.08947 9.375 6.25 8.53553 6.25 7.5V5.625ZM8.4375 8.125C8.95525 8.125 9.375 7.70527 9.375 7.1875C9.375 6.66973 8.95525 6.25 8.4375 6.25C7.91973 6.25 7.5 6.66973 7.5 7.1875C7.5 7.70527 7.91973 8.125 8.4375 8.125ZM11.5625 8.125C12.0802 8.125 12.5 7.70527 12.5 7.1875C12.5 6.66973 12.0802 6.25 11.5625 6.25C11.0448 6.25 10.625 6.66973 10.625 7.1875C10.625 7.70527 11.0448 8.125 11.5625 8.125ZM6.25 16.25C6.25 14.1789 7.92893 12.5 10 12.5C12.0711 12.5 13.75 14.1789 13.75 16.25H15C15 13.4886 12.7614 11.25 10 11.25C7.23857 11.25 5 13.4886 5 16.25H6.25Z" fill="url(#paint0_linear_784_4868)"/>
<defs>
<linearGradient id="paint0_linear_784_4868" x1="10" y1="3.125" x2="10" y2="16.25" gradientUnits="userSpaceOnUse">
<stop stop-color="#34C759"/>
<stop offset="1" stop-color="#008B1D"/>
</linearGradient>
</defs>
</svg>
