<svg width="54" height="32" viewBox="0 0 54 32" fill="none" xmlns="http://www.w3.org/2000/svg">
<g clip-path="url(#clip0_172283_24611)">
<path d="M16 0.5C24.5604 0.5 31.5 7.43959 31.5 16C31.5 24.5604 24.5604 31.5 16 31.5C7.43959 31.5 0.5 24.5604 0.5 16C0.5 7.43959 7.43959 0.5 16 0.5Z" fill="#26A17B" stroke="white"/>
<path fill-rule="evenodd" clip-rule="evenodd" d="M17.9189 17.3824V17.3804C17.8089 17.3884 17.2419 17.4224 15.9769 17.4224C14.9669 17.4224 14.2559 17.3924 14.0059 17.3804V17.3834C10.1179 17.2124 7.21587 16.5354 7.21587 15.7254C7.21587 14.9154 10.1179 14.2394 14.0059 14.0654V16.7094C14.2599 16.7274 14.9879 16.7704 15.9939 16.7704C17.2009 16.7704 17.8059 16.7204 17.9189 16.7104V14.0674C21.7989 14.2404 24.6939 14.9174 24.6939 15.7254C24.6939 16.5354 21.7989 17.2104 17.9189 17.3824ZM17.9189 13.7924V11.4264H23.3329V7.81836H8.59188V11.4264H14.0059V13.7914C9.60587 13.9934 6.29688 14.8654 6.29688 15.9094C6.29688 16.9534 9.60587 17.8244 14.0059 18.0274V25.6094H17.9189V18.0254C22.3119 17.8234 25.6129 16.9524 25.6129 15.9094C25.6129 14.8664 22.3119 13.9954 17.9189 13.7924Z" fill="white"/>
</g>
<g clip-path="url(#clip1_172283_24611)">
<path d="M38 0.5C46.5604 0.5 53.5 7.43959 53.5 16C53.5 24.5604 46.5604 31.5 38 31.5C29.4396 31.5 22.5 24.5604 22.5 16C22.5 7.43959 29.4396 0.5 38 0.5Z" fill="#EF0027" stroke="white"/>
<path d="M43.932 9.91381L29.5 7.25781L37.095 26.3698L47.678 13.4758L43.932 9.91381ZM43.7 11.0838L45.908 13.1828L39.87 14.2758L43.7 11.0838ZM38.558 14.0568L32.194 8.77881L42.596 10.6928L38.558 14.0568ZM38.105 14.9908L37.067 23.5708L31.472 9.48781L38.105 14.9908ZM39.065 15.4458L45.752 14.2358L38.082 23.5788L39.065 15.4458Z" fill="white"/>
</g>
<defs>
<clipPath id="clip0_172283_24611">
<rect width="32" height="32" fill="white"/>
</clipPath>
<clipPath id="clip1_172283_24611">
<rect width="32" height="32" fill="white" transform="translate(22)"/>
</clipPath>
</defs>
</svg>
