<svg width="32" height="32" viewBox="0 0 32 32" fill="none" xmlns="http://www.w3.org/2000/svg">
<path d="M11.9142 16.9744C11.762 16.3341 11.762 15.6671 11.9142 15.0268L10.7238 14.3392L11.9238 12.2608L13.1142 12.9484C13.592 12.4959 14.1695 12.1621 14.8002 11.974V10.6H17.2002V11.974C17.8386 12.1636 18.4146 12.502 18.8862 12.9484L20.0766 12.2608L21.2766 14.3392L20.0862 15.0268C20.2382 15.6667 20.2382 16.3333 20.0862 16.9732L21.2766 17.6608L20.0766 19.7392L18.8862 19.0516C18.4084 19.5041 17.8308 19.8379 17.2002 20.026V21.4H14.8002V20.026C14.1695 19.8379 13.592 19.5041 13.1142 19.0516L11.9238 19.7392L10.7238 17.6608L11.9142 16.9744V16.9744ZM16.0002 17.8C16.4776 17.8 16.9354 17.6104 17.273 17.2728C17.6106 16.9352 17.8002 16.4774 17.8002 16C17.8002 15.5226 17.6106 15.0648 17.273 14.7272C16.9354 14.3896 16.4776 14.2 16.0002 14.2C15.5228 14.2 15.065 14.3896 14.7274 14.7272C14.3898 15.0648 14.2002 15.5226 14.2002 16C14.2002 16.4774 14.3898 16.9352 14.7274 17.2728C15.065 17.6104 15.5228 17.8 16.0002 17.8ZM19.6002 6.4H7.6002V25.6H24.4002V11.2H19.6002V6.4ZM5.2002 5.1904C5.2002 4.5328 5.7366 4 6.399 4H20.8002L26.8002 10V26.7916C26.8013 26.9492 26.7714 27.1055 26.7121 27.2515C26.6528 27.3975 26.5653 27.5304 26.4547 27.6426C26.344 27.7548 26.2124 27.8441 26.0672 27.9054C25.922 27.9668 25.7662 27.9989 25.6086 28H6.3918C6.07665 27.9978 5.77502 27.8717 5.55206 27.649C5.3291 27.4263 5.20271 27.1247 5.2002 26.8096V5.1904Z" fill="#9A9A9A"/>
</svg>
