<svg width="96" height="28" viewBox="0 0 96 28" fill="none" xmlns="http://www.w3.org/2000/svg">
<path d="M24.8063 27.8775C24.7765 27.7985 24.765 21.5195 24.7811 13.9239L24.8109 0.1146L25.7563 0.0813649L26.7018 0.0481335V13.0586V26.0692L32.8042 26.099L38.9066 26.1288V27.0456V27.9623L31.884 27.9921C26.327 28.0151 24.8498 27.991 24.8063 27.8775ZM52.2002 27.8982C44.9082 26.9057 39.6332 20.5947 40.0389 13.3509C40.3208 8.30849 43.1846 3.86889 47.6128 1.60898C49.7856 0.500802 51.4083 0.131791 54.0911 0.134083C55.9682 0.136375 56.1848 0.160439 57.4718 0.497363C59.8154 1.11162 62.167 2.41806 63.8699 4.05339C64.5036 4.66077 65.5511 5.93742 65.5511 6.10244C65.5511 6.16318 65.2646 6.48406 64.9139 6.81525L64.2767 7.41805L63.2465 6.32018C61.6215 4.58972 59.8406 3.34975 58.1078 2.74467C56.5252 2.19115 55.8582 2.08572 53.9765 2.08916C52.4432 2.09145 52.0478 2.13156 51.0874 2.38482C46.7223 3.53426 43.4574 6.80035 42.2633 11.2102C42.0455 12.0146 42.01 12.4306 42.0146 14.1531C42.0192 15.9947 42.0455 16.2434 42.3297 17.19C42.9761 19.3376 43.9845 21.0428 45.4812 22.5212C47.0891 24.1084 48.8081 25.1008 50.9969 25.7047C51.9664 25.9729 52.2919 26.0061 53.9765 26.0073C55.5488 26.0084 56.0359 25.966 56.8656 25.7575C59.5885 25.0699 61.8151 23.768 63.3382 21.9734L63.9467 21.256V19.1382V17.0204L57.9588 16.9906L51.971 16.9608V16.1586V15.3564H58.847H65.723L65.7539 18.6041L65.7837 21.8519L65.2038 22.5807C63.1846 25.118 59.8864 27.1464 56.8312 27.7297C55.6371 27.9578 53.2694 28.0437 52.2002 27.8982ZM79.9334 27.889C77.9107 27.6312 75.4983 26.696 73.7175 25.479C71.8736 24.2195 70.1534 22.1808 69.1598 20.0813C68.235 18.1262 67.8431 16.3133 67.8431 13.9881C67.8431 7.56244 72.1085 2.08228 78.3313 0.50997C81.6329 -0.32317 85.0227 0.035525 88.0608 1.54251C90.2347 2.6209 92.0019 4.10382 93.2934 5.93283C94.9837 8.32797 95.8054 10.997 95.8054 14.0958C95.8054 18.0117 94.5001 21.1998 91.7944 23.8986C90.2324 25.4572 88.4504 26.5425 86.2375 27.2828C84.2881 27.9348 82.0133 28.1537 79.9334 27.889ZM83.7725 25.9122C88.3381 25.1684 92.1818 21.8049 93.4447 17.4467C94.397 14.1611 93.9203 10.6681 92.1188 7.73434C91.4312 6.61585 89.695 4.80631 88.6682 4.1382C82.6769 0.241804 75.0766 1.92871 71.422 7.96469C70.3265 9.77422 69.7569 11.9012 69.7649 14.1531C69.7752 17.2519 70.9189 20.0584 73.0883 22.308C75.9338 25.2601 79.789 26.5608 83.7725 25.9122ZM0 27.7893C0 27.6816 0.823973 25.3976 7.5017 6.99059L10.0378 0H11.0532H12.0685L12.3252 0.744899C12.4662 1.15517 13.7783 4.89341 15.2406 9.05338C16.7029 13.2134 18.2523 17.6232 18.6832 18.8517C19.113 20.0802 19.9644 22.5051 20.5741 24.2379C21.1838 25.9706 21.7098 27.5074 21.743 27.6518C21.8015 27.9119 21.7934 27.9142 20.7884 27.881L19.7742 27.8477L19.294 26.4726C19.0304 25.7162 17.9532 22.6736 16.9012 19.7112C15.8492 16.7488 14.8189 13.8356 14.6115 13.2363C14.404 12.6369 13.6821 10.6005 13.0071 8.70958C12.3321 6.81869 11.6113 4.78225 11.4038 4.18289C11.0314 3.10451 11.0268 3.09763 10.8893 3.43799C10.7174 3.86201 8.80929 9.05568 6.99288 14.0385C6.24684 16.0875 4.80631 20.0263 3.79211 22.7928C2.7779 25.5592 1.9482 27.842 1.9482 27.8638C1.9482 27.8867 1.51043 27.9051 0.974098 27.9051C0.394223 27.9051 0 27.8581 0 27.7893Z" fill="#232323"/>
</svg>
