<svg width="114" height="38" viewBox="0 0 114 38" fill="none" xmlns="http://www.w3.org/2000/svg">
<path d="M81.2503 29.298V0H87.1403V29.298H81.2503ZM12.6223 38H0V8.702H12.1157C18.0057 8.702 21.432 11.913 21.432 16.9353C21.432 20.1843 19.228 22.287 17.708 22.9837C19.5257 23.807 21.8563 25.6627 21.8563 29.5703C21.8563 35.036 17.9993 37.9937 12.6223 37.9937M11.647 13.8003H5.88367V20.5453H11.647C14.1487 20.5453 15.542 19.19 15.542 17.1697C15.542 15.162 14.1487 13.8003 11.647 13.8003ZM12.027 25.688H5.88367V32.889H12.027C14.687 32.889 15.9663 31.2487 15.9663 29.2727C15.9663 27.2967 14.6933 25.6943 12.027 25.6943V25.688ZM39.8177 25.9793V38H33.972V25.9793L24.909 8.702H31.3057L36.936 20.5073L42.4903 8.702H48.887L39.8177 25.9793ZM65.5817 38H52.9593V8.702H65.075C70.965 8.702 74.385 11.913 74.385 16.9353C74.385 20.1843 72.1873 22.287 70.661 22.9837C72.4787 23.807 74.8093 25.6627 74.8093 29.5703C74.8093 35.036 70.9587 37.9937 65.5817 37.9937M64.6 13.8003H58.8367V20.5453H64.6C67.1017 20.5453 68.5013 19.19 68.5013 17.1697C68.5013 15.162 67.108 13.8003 64.6 13.8003ZM64.98 25.688H58.8367V32.889H64.98C67.6527 32.889 68.9193 31.2487 68.9193 29.2727C68.9193 27.2967 67.6527 25.6943 64.98 25.6943V25.688ZM106.115 13.8067V38H100.231V13.8067H92.3463V8.702H114V13.8067H106.115Z" fill="black"/>
</svg>
