<svg width="23" height="21" viewBox="0 0 23 21" fill="none" xmlns="http://www.w3.org/2000/svg">
<path d="M11.0193 16.8336C13.5514 16.8336 15.6041 14.7809 15.6041 12.2488C15.6041 9.71672 13.5514 7.66406 11.0193 7.66406C8.48723 7.66406 6.43457 9.71672 6.43457 12.2488C6.43457 14.7809 8.48723 16.8336 11.0193 16.8336Z" stroke="white" stroke-linecap="round" stroke-linejoin="round"/>
<path d="M11.0206 5.6584C12.4451 5.6584 13.5998 4.50365 13.5998 3.0792C13.5998 1.65475 12.4451 0.5 11.0206 0.5C9.59615 0.5 8.44141 1.65475 8.44141 3.0792C8.44141 4.50365 9.59615 5.6584 11.0206 5.6584Z" stroke="white" stroke-linecap="round" stroke-linejoin="round"/>
<path d="M8.86676 8.20164C8.8723 8.15623 8.8723 8.11027 8.8723 8.06432V6.75201H13.1713V8.06432C13.1713 8.11027 13.1713 8.15623 13.1769 8.20219M13.601 3.07812C14.361 3.07842 15.0897 3.38049 15.6271 3.91792C16.1644 4.45536 16.4663 5.18417 16.4665 5.94415V8.06487C16.468 8.49912 16.2976 8.91633 15.9926 9.22546C15.6877 9.5346 15.2728 9.71055 14.8386 9.71494M7.20507 9.71494C6.77129 9.70911 6.35726 9.5327 6.05259 9.22388C5.74791 8.91506 5.57711 8.49868 5.57715 8.06487V5.94415C5.5773 5.18417 5.87922 4.45536 6.41655 3.91792C6.95389 3.38049 7.68264 3.07842 8.44262 3.07812" stroke="white" stroke-linecap="round" stroke-linejoin="round"/>
<path d="M3.0792 19.4143C4.50365 19.4143 5.6584 18.2595 5.6584 16.8351C5.6584 15.4106 4.50365 14.2559 3.0792 14.2559C1.65475 14.2559 0.5 15.4106 0.5 16.8351C0.5 18.2595 1.65475 19.4143 3.0792 19.4143Z" stroke="white" stroke-linecap="round" stroke-linejoin="round"/>
<path d="M8.59205 16.1379C8.55017 16.1566 8.50948 16.1779 8.47023 16.2016L7.33346 16.8578L5.1845 13.1351L6.32127 12.479C6.36059 12.4557 6.40045 12.433 6.43755 12.4053M1.78802 14.5997C1.40818 13.9415 1.30528 13.1593 1.50194 12.4252C1.6986 11.6911 2.17872 11.0652 2.83675 10.685L4.67342 9.62459C5.04876 9.40613 5.49527 9.345 5.9155 9.45455C6.33574 9.5641 6.69559 9.83542 6.91651 10.2093M10.7338 16.8207C10.9456 17.1993 10.9997 17.6461 10.8845 18.0644C10.7692 18.4826 10.4939 18.8387 10.1181 19.0554L8.28142 20.1158C7.62317 20.4956 6.84102 20.5985 6.10693 20.4019C5.37283 20.2052 4.74688 19.7251 4.36666 19.0671" stroke="white" stroke-linecap="round" stroke-linejoin="round"/>
<path d="M18.961 19.4143C20.3855 19.4143 21.5402 18.2595 21.5402 16.8351C21.5402 15.4106 20.3855 14.2559 18.961 14.2559C17.5366 14.2559 16.3818 15.4106 16.3818 16.8351C16.3818 18.2595 17.5366 19.4143 18.961 19.4143Z" stroke="white" stroke-linecap="round" stroke-linejoin="round"/>
<path d="M15.6019 12.4049C15.639 12.4326 15.6789 12.4553 15.7182 12.4785L16.855 13.1347L14.706 16.8573L13.5692 16.2011C13.5301 16.1771 13.4895 16.1557 13.4474 16.1369M17.6723 19.0666C17.292 19.7246 16.6661 20.2048 15.932 20.4014C15.1979 20.5981 14.4157 20.4952 13.7575 20.1153L11.9214 19.055C11.5445 18.8393 11.2682 18.4832 11.1528 18.0645C11.0375 17.6458 11.0924 17.1985 11.3057 16.8202M15.123 10.2088C15.345 9.83617 15.7049 9.56592 16.1247 9.45659C16.5445 9.34726 16.9904 9.40765 17.366 9.62468L19.2027 10.6845C19.8608 11.0647 20.3409 11.6907 20.5375 12.4248C20.7342 13.1588 20.6313 13.941 20.2515 14.5992" stroke="white" stroke-linecap="round" stroke-linejoin="round"/>
</svg>
