<svg width="39" height="12" viewBox="0 0 39 12" fill="none" xmlns="http://www.w3.org/2000/svg">
<path d="M4.7714 0.274736C5.22948 0.779246 5.56962 1.89017 5.83959 2.51275C6.29387 3.56031 6.77724 4.58716 7.18905 5.65224C7.26598 5.85368 7.34752 6.22986 7.5314 6.34855L7.58785 6.34346C7.93012 5.55705 8.17981 4.71769 8.51226 3.92274C8.75056 3.35277 9.07908 2.82242 9.31945 2.25183C9.54494 1.71655 9.72357 1.06814 10.0177 0.573067C10.0886 0.45368 10.1781 0.350027 10.3095 0.297035C10.5316 0.207447 12.8817 0.255544 13.3223 0.243928C13.5093 0.987717 13.5905 2.02898 13.7137 2.82359L14.5992 8.7333C14.6773 9.28618 14.9934 11.3201 14.914 11.7353C14.6774 11.7987 13.9779 11.7432 13.683 11.7464C13.0752 11.7531 12.4464 11.7311 11.839 11.7646C11.6943 10.5607 11.5768 9.32421 11.3279 8.13858C11.1492 7.2878 11.1056 6.47505 11.0022 5.62403C10.9921 5.49828 10.9939 5.45655 10.9378 5.33864L10.8899 5.35126L10.8277 5.53864C10.2406 7.00543 9.46079 8.43163 8.88965 9.91687C8.66638 10.4975 8.20138 11.1792 8.04023 11.7667L7.05619 11.7608C6.78369 11.0472 6.35525 10.3155 6.02137 9.61971C5.77517 9.10661 5.58356 8.58439 5.34689 8.07397C4.92078 7.15528 4.40722 6.10345 4.09595 5.13899C4.04008 5.70791 3.86638 6.97738 3.77104 7.53306C3.63973 8.29868 3.405 11.2126 3.1762 11.7225C3.03771 11.8003 0.491375 11.7159 0 11.7871C0.0278401 11.0263 0.256626 10.1921 0.352333 9.43276C0.613318 7.40606 0.897454 5.38242 1.20469 3.36225C1.30178 2.74923 1.42713 2.15144 1.54313 1.543C1.62153 1.1317 1.66248 0.695368 1.72946 0.278582C2.36705 0.227028 4.0954 0.249328 4.7714 0.274736Z" fill="white"/>
<path d="M18.6623 0.000101909C20.3833 -0.00487093 21.5995 0.169335 23.0578 1.14347C23.3166 1.31635 23.529 1.53446 23.7475 1.75396C24.9895 3.00168 25.4752 4.44889 25.4491 6.186C25.4407 6.75186 25.4027 7.27941 25.2384 7.82444C25.1427 8.14184 24.5985 9.04985 24.6139 9.26372C24.621 9.36267 26.5105 11.4446 26.5535 11.6576L26.5105 11.7096C26.2611 11.7766 23.616 11.7536 23.2033 11.7272C23.1361 11.6344 23.0248 11.4299 22.9627 11.3238C22.7686 11.0532 22.619 11.0902 22.323 11.2469C21.6622 11.6209 21.2703 11.8412 20.5015 11.917C19.0618 12.059 17.3025 12.112 16.0447 11.2825C15.8487 11.1532 15.6774 9.39181 15.6288 9.0206C15.492 7.96515 15.3466 6.91087 15.1926 5.85779C15.0301 4.74427 14.6361 2.89795 14.6064 1.80924C14.9163 1.08305 16.5683 0.403213 17.325 0.182815C17.6399 0.0910894 18.3189 0.0292396 18.6623 0.000101909ZM20.1811 8.86085C20.3662 8.78443 20.5504 8.7063 20.734 8.62638C20.3664 8.32059 19.6393 7.37758 19.3577 6.96724C19.6986 7.00477 21.8897 7.03438 21.971 6.9369C22.3648 6.46495 21.9635 4.46408 21.4216 3.98304C20.6754 3.32056 20.0618 2.94433 19.1932 2.99107C18.6683 3.03924 18.2238 3.10397 17.7455 3.33443C16.463 3.94889 15.7869 5.91378 16.4299 7.189C16.644 7.61363 16.8337 8.06243 17.2251 8.3603C18.1657 9.07608 19.0821 9.08711 20.1811 8.86085Z" fill="white"/>
<path d="M31.4801 0.262529L35.5338 0.266648C36.2615 0.266531 37.3074 0.29664 38.0116 0.239258C38.0524 0.620884 37.9438 2.67148 37.7399 2.93745C37.4321 3.05882 34.0976 3.01713 33.6608 2.96185C33.6671 3.37922 33.5871 3.77172 33.5102 4.18144C35.8686 4.16092 38.1584 4.42705 38.8123 7.27334C39.1208 8.61659 38.6985 9.48501 37.9877 10.5992C37.9838 10.6043 37.9799 10.6095 37.976 10.6146C37.2076 11.3459 36.226 11.8876 35.1568 11.9536C34.7485 11.9787 33.5211 12.0018 33.2447 11.7776C33.1162 11.4927 33.4524 9.29219 33.509 8.82012C33.8177 9.01026 33.9449 9.22502 34.3269 9.29643C34.6402 9.35498 34.9707 9.3028 35.235 9.11974C35.5447 8.90528 35.739 8.5397 35.7982 8.17307C35.859 7.79669 35.7815 7.40951 35.5552 7.09979C34.9245 6.23646 31.8934 6.80849 30.8665 6.63149C30.7659 6.61416 30.6809 6.59097 30.6186 6.5036C30.587 6.15262 31.1076 0.897771 31.2164 0.592175C31.2684 0.445903 31.3352 0.328691 31.4801 0.262529Z" fill="#C6C6C6"/>
<path d="M28.3882 0.236439C28.4315 0.231583 28.4531 0.24382 28.4971 0.256641C28.5943 0.391646 28.5444 1.4199 28.5443 1.65517L28.5446 4.44832C28.545 5.76542 28.5966 7.50452 28.5186 8.78207C29.7004 8.7095 31.3326 8.77104 32.5782 8.74341C32.5423 9.16412 32.4197 9.65546 32.3756 10.0725C32.3125 10.667 32.2609 11.2086 32.1732 11.8016C31.2955 11.695 29.8196 11.743 28.9018 11.7471C28.5617 11.753 28.006 11.8198 27.7552 11.5656C27.2799 11.0836 26.8809 10.5299 26.4518 10.0086C26.1683 9.6642 25.9205 9.50301 25.7117 9.09295C26.6406 7.06671 26.7261 5.40442 25.8809 3.34668C25.5106 2.44516 25.2741 2.11676 25.3374 1.0915C25.3504 0.879995 25.321 0.56352 25.3953 0.363907C25.4718 0.294093 25.5115 0.267598 25.6219 0.263635C26.5364 0.231001 27.4757 0.31515 28.3882 0.236439Z" fill="white"/>
</svg>
