<svg width="76" height="36" viewBox="0 0 76 36" fill="none" xmlns="http://www.w3.org/2000/svg">
<rect width="75.8855" height="36" rx="18" fill="#0088FF"/>
<path d="M18.3619 10.367C18.9726 11.0396 19.4262 12.5209 19.7861 13.351C20.3918 14.7477 21.0363 16.1169 21.5854 17.537C21.688 17.8056 21.7967 18.3071 22.0419 18.4654L22.1171 18.4586C22.5735 17.4101 22.9064 16.2909 23.3497 15.231C23.6674 14.471 24.1054 13.7639 24.4259 13.0031C24.7266 12.2894 24.9648 11.4248 25.3569 10.7647C25.4515 10.6056 25.5708 10.4674 25.746 10.3967C26.0422 10.2772 29.1756 10.3414 29.7631 10.3259C30.0124 11.3176 30.1207 12.706 30.2849 13.7654L31.4657 21.6451C31.5697 22.3822 31.9912 25.0941 31.8854 25.6478C31.5699 25.7323 30.6372 25.6582 30.244 25.6625C29.4336 25.6714 28.5951 25.6422 27.7854 25.6868C27.5923 24.0816 27.4357 22.4329 27.1038 20.8521C26.8656 19.7177 26.8074 18.6341 26.6696 17.4994C26.6562 17.3317 26.6585 17.2761 26.5838 17.1188L26.5199 17.1357L26.437 17.3855C25.6542 19.3412 24.6144 21.2428 23.8529 23.2232C23.5552 23.9973 22.9352 24.9063 22.7203 25.6895L21.4082 25.6818C21.0449 24.7303 20.4737 23.7546 20.0285 22.8269C19.7002 22.1428 19.4448 21.4465 19.1292 20.7659C18.561 19.541 17.8763 18.1386 17.4613 16.8526C17.3868 17.6112 17.1552 19.3038 17.0281 20.0447C16.853 21.0656 16.54 24.9508 16.2349 25.6307C16.0503 25.7343 12.6552 25.6219 12 25.7168C12.0371 24.7024 12.3422 23.5901 12.4698 22.5777C12.8178 19.8754 13.1966 17.1772 13.6063 14.4836C13.7357 13.6663 13.9028 12.8692 14.0575 12.058C14.162 11.5096 14.2166 10.9278 14.3059 10.3721C15.1561 10.3034 17.4605 10.3331 18.3619 10.367Z" fill="white"/>
<path d="M36.8844 10.0001C39.1791 9.99351 40.8006 10.2258 42.745 11.5246C43.0901 11.7551 43.3733 12.0459 43.6647 12.3386C45.3206 14.0022 45.9682 15.9319 45.9335 18.248C45.9222 19.0025 45.8715 19.7059 45.6525 20.4326C45.5249 20.8558 44.7993 22.0665 44.8198 22.3516C44.8293 22.4836 47.3486 25.2594 47.406 25.5435L47.3487 25.6128C47.0161 25.7021 43.4893 25.6715 42.9391 25.6362C42.8495 25.5125 42.701 25.2399 42.6183 25.0983C42.3594 24.7377 42.1599 24.787 41.7653 24.9959C40.8843 25.4946 40.3617 25.7883 39.3367 25.8893C37.4171 26.0787 35.0713 26.1493 33.3943 25.0433C33.1329 24.8709 32.9044 22.5224 32.8396 22.0275C32.6573 20.6202 32.4634 19.2145 32.2581 17.8104C32.0414 16.3257 31.5161 13.8639 31.4766 12.4123C31.8897 11.4441 34.0924 10.5376 35.1013 10.2438C35.5212 10.1215 36.4265 10.039 36.8844 10.0001ZM38.9095 21.8145C39.1562 21.7126 39.4019 21.6084 39.6466 21.5018C39.1565 21.0941 38.187 19.8368 37.8115 19.2897C38.266 19.3397 41.1875 19.3792 41.296 19.2492C41.8211 18.6199 41.286 15.9521 40.5634 15.3107C39.5685 14.4274 38.7504 13.9258 37.5923 13.9881C36.8923 14.0523 36.2996 14.1386 35.6619 14.4459C33.952 15.2652 33.0505 17.885 33.9078 19.5853C34.1933 20.1515 34.4463 20.7499 34.9682 21.1471C36.2222 22.1014 37.4441 22.1161 38.9095 21.8145Z" fill="white"/>
<path d="M53.9728 10.3494L59.3777 10.3549C60.3481 10.3547 61.7425 10.3949 62.6815 10.3184C62.7359 10.8272 62.5911 13.5613 62.3193 13.916C61.9088 14.0778 57.4628 14.0222 56.8804 13.9485C56.8888 14.505 56.7821 15.0283 56.6796 15.5746C59.8242 15.5472 62.8773 15.9021 63.7491 19.6971C64.1604 21.4881 63.5973 22.646 62.6496 24.1316C62.6444 24.1384 62.6392 24.1453 62.634 24.1522C61.6095 25.1272 60.3007 25.8495 58.8751 25.9374C58.3306 25.971 56.6941 26.0017 56.3256 25.7028C56.1542 25.323 56.6025 22.3889 56.6781 21.7595C57.0896 22.013 57.2592 22.2994 57.7686 22.3946C58.1863 22.4727 58.6269 22.4031 58.9794 22.159C59.3922 21.8731 59.6514 21.3856 59.7303 20.8968C59.8113 20.3949 59.7081 19.8787 59.4063 19.4657C58.5654 18.3146 54.5238 19.0773 53.1546 18.8413C53.0205 18.8182 52.9072 18.7873 52.8241 18.6708C52.782 18.2028 53.4761 11.1964 53.6212 10.7889C53.6906 10.5939 53.7796 10.4376 53.9728 10.3494Z" fill="white"/>
<path d="M49.8489 10.3159C49.9067 10.3094 49.9355 10.3257 49.9941 10.3428C50.1238 10.5228 50.0572 11.8938 50.0571 12.2076L50.0576 15.9317C50.058 17.6879 50.1269 20.0067 50.0229 21.7101C51.5985 21.6133 53.7749 21.6954 55.4356 21.6585C55.3878 22.2195 55.2244 22.8746 55.1655 23.4306C55.0814 24.2234 55.0126 24.9455 54.8957 25.7361C53.7254 25.594 51.7575 25.658 50.5337 25.6635C50.0803 25.6713 49.3394 25.7604 49.005 25.4215C48.3712 24.7788 47.8392 24.0405 47.2671 23.3455C46.889 22.8863 46.5587 22.6713 46.2803 22.1246C47.5189 19.4229 47.6329 17.2065 46.5059 14.4629C46.0122 13.2609 45.6969 12.823 45.7812 11.456C45.7986 11.174 45.7593 10.752 45.8584 10.4859C45.9604 10.3928 46.0134 10.3574 46.1606 10.3522C47.3799 10.3087 48.6323 10.4209 49.8489 10.3159Z" fill="white"/>
</svg>
