<svg width="39" height="12" viewBox="0 0 39 12" fill="none" xmlns="http://www.w3.org/2000/svg">
<path d="M4.7714 0.274736C5.22948 0.779246 5.56962 1.89017 5.83959 2.51275C6.29387 3.56031 6.77724 4.58716 7.18905 5.65224C7.26598 5.85368 7.34752 6.22986 7.5314 6.34855L7.58785 6.34346C7.93012 5.55705 8.17981 4.71769 8.51226 3.92274C8.75056 3.35277 9.07908 2.82242 9.31945 2.25183C9.54494 1.71655 9.72357 1.06814 10.0177 0.573067C10.0886 0.45368 10.1781 0.350027 10.3095 0.297035C10.5316 0.207447 12.8817 0.255544 13.3223 0.243928C13.5093 0.987717 13.5905 2.02898 13.7137 2.82359L14.5992 8.7333C14.6773 9.28618 14.9934 11.3201 14.914 11.7353C14.6774 11.7987 13.9779 11.7432 13.683 11.7464C13.0752 11.7531 12.4464 11.7311 11.839 11.7646C11.6943 10.5607 11.5768 9.32421 11.3279 8.13858C11.1492 7.2878 11.1056 6.47505 11.0022 5.62403C10.9921 5.49828 10.9939 5.45655 10.9378 5.33864L10.8899 5.35126L10.8277 5.53864C10.2406 7.00543 9.46079 8.43163 8.88965 9.91687C8.66638 10.4975 8.20138 11.1792 8.04023 11.7667L7.05619 11.7608C6.78369 11.0472 6.35525 10.3155 6.02137 9.61971C5.77517 9.10661 5.58356 8.58439 5.34689 8.07397C4.92078 7.15528 4.40722 6.10345 4.09595 5.13899C4.04008 5.70791 3.86638 6.97738 3.77104 7.53306C3.63973 8.29868 3.405 11.2126 3.1762 11.7225C3.03771 11.8003 0.491375 11.7159 0 11.7871C0.0278401 11.0263 0.256626 10.1921 0.352333 9.43276C0.613318 7.40606 0.897454 5.38242 1.20469 3.36225C1.30178 2.74923 1.42713 2.15144 1.54313 1.543C1.62153 1.1317 1.66248 0.695368 1.72946 0.278582C2.36705 0.227028 4.0954 0.249328 4.7714 0.274736Z" fill="#232323"/>
<path d="M18.6633 0.000101909C20.3843 -0.00487093 21.6005 0.169335 23.0588 1.14347C23.3175 1.31635 23.53 1.53446 23.7485 1.75396C24.9904 3.00168 25.4761 4.44889 25.4501 6.186C25.4416 6.75186 25.4036 7.27941 25.2394 7.82444C25.1437 8.14184 24.5994 9.04985 24.6148 9.26372C24.6219 9.36267 26.5115 11.4446 26.5545 11.6576L26.5115 11.7096C26.262 11.7766 23.617 11.7536 23.2043 11.7272C23.1371 11.6344 23.0257 11.4299 22.9637 11.3238C22.7696 11.0532 22.6199 11.0902 22.324 11.2469C21.6632 11.6209 21.2713 11.8412 20.5025 11.917C19.0628 12.059 17.3034 12.112 16.0457 11.2825C15.8497 11.1532 15.6783 9.39181 15.6297 9.0206C15.493 7.96515 15.3476 6.91087 15.1936 5.85779C15.031 4.74427 14.6371 2.89795 14.6074 1.80924C14.9173 1.08305 16.5693 0.403213 17.326 0.182815C17.6409 0.0910894 18.3198 0.0292396 18.6633 0.000101909ZM20.1821 8.86085C20.3671 8.78443 20.5514 8.7063 20.735 8.62638C20.3674 8.32059 19.6402 7.37758 19.3587 6.96724C19.6995 7.00477 21.8906 7.03438 21.972 6.9369C22.3658 6.46495 21.9645 4.46408 21.4226 3.98304C20.6763 3.32056 20.0628 2.94433 19.1942 2.99107C18.6693 3.03924 18.2247 3.10397 17.7464 3.33443C16.464 3.94889 15.7878 5.91378 16.4309 7.189C16.645 7.61363 16.8347 8.06243 17.2261 8.3603C18.1667 9.07608 19.0831 9.08711 20.1821 8.86085Z" fill="#232323"/>
<path d="M31.4801 0.262529L35.5338 0.266648C36.2615 0.266531 37.3074 0.29664 38.0116 0.239258C38.0524 0.620884 37.9438 2.67148 37.7399 2.93745C37.4321 3.05882 34.0976 3.01713 33.6608 2.96185C33.6671 3.37922 33.5871 3.77172 33.5102 4.18144C35.8686 4.16092 38.1584 4.42705 38.8123 7.27334C39.1208 8.61659 38.6985 9.48501 37.9877 10.5992C37.9838 10.6043 37.9799 10.6095 37.976 10.6146C37.2076 11.3459 36.226 11.8876 35.1568 11.9536C34.7485 11.9787 33.5211 12.0018 33.2447 11.7776C33.1162 11.4927 33.4524 9.29219 33.509 8.82012C33.8177 9.01026 33.9449 9.22502 34.3269 9.29643C34.6402 9.35498 34.9707 9.3028 35.235 9.11974C35.5447 8.90528 35.739 8.5397 35.7982 8.17307C35.859 7.79669 35.7815 7.40951 35.5552 7.09979C34.9245 6.23646 31.8934 6.80849 30.8665 6.63149C30.7659 6.61416 30.6809 6.59097 30.6186 6.5036C30.587 6.15262 31.1076 0.897771 31.2164 0.592175C31.2684 0.445903 31.3352 0.328691 31.4801 0.262529Z" fill="#919191"/>
<path d="M28.3872 0.236439C28.4305 0.231583 28.4521 0.24382 28.4961 0.256641C28.5933 0.391646 28.5434 1.4199 28.5433 1.65517L28.5437 4.44832C28.544 5.76542 28.5957 7.50452 28.5176 8.78207C29.6994 8.7095 31.3316 8.77104 32.5772 8.74341C32.5414 9.16412 32.4188 9.65546 32.3746 10.0725C32.3115 10.667 32.2599 11.2086 32.1722 11.8016C31.2945 11.695 29.8186 11.743 28.9008 11.7471C28.5607 11.753 28.0051 11.8198 27.7543 11.5656C27.2789 11.0836 26.8799 10.5299 26.4508 10.0086C26.1673 9.6642 25.9195 9.50301 25.7107 9.09295C26.6397 7.06671 26.7252 5.40442 25.8799 3.34668C25.5097 2.44516 25.2731 2.11676 25.3364 1.0915C25.3494 0.879995 25.32 0.56352 25.3943 0.363907C25.4708 0.294093 25.5106 0.267598 25.621 0.263635C26.5354 0.231001 27.4747 0.31515 28.3872 0.236439Z" fill="#232323"/>
</svg>
