<svg width="32" height="32" viewBox="0 0 32 32" fill="none" xmlns="http://www.w3.org/2000/svg">
<path d="M16 2.80078L25.8604 4.99198C26.4088 5.11438 26.8 5.60038 26.8 6.16318V18.1476C26.8 20.5548 25.5964 22.8036 23.5936 24.138L16 29.2008L8.40635 24.138C6.40235 22.8024 5.19995 20.5548 5.19995 18.1488V6.16318C5.19995 5.60038 5.59115 5.11438 6.13955 4.99198L16 2.80078ZM16 5.25958L7.59995 7.12558V18.1476C7.59995 19.752 8.40155 21.2508 9.73715 22.1412L16 26.3172L22.2628 22.1412C23.5984 21.2508 24.4 19.7532 24.4 18.1488V7.12558L16 5.26078V5.25958ZM21.3424 11.4672L23.0404 13.164L15.4036 20.8008L10.312 15.7092L12.0088 14.0124L15.4024 17.406L21.3424 11.466V11.4672Z" fill="#9A9A9A"/>
</svg>
