<svg width="24" height="24" viewBox="0 0 24 24" fill="none" xmlns="http://www.w3.org/2000/svg">
<path d="M12 19.5C7.85786 19.5 4.5 16.1421 4.5 12C4.5 7.85786 7.85786 4.5 12 4.5C16.1421 4.5 19.5 7.85786 19.5 12C19.5 16.1421 16.1421 19.5 12 19.5ZM12 18C15.3137 18 18 15.3137 18 12C18 8.68629 15.3137 6 12 6C8.68629 6 6 8.68629 6 12C6 15.3137 8.68629 18 12 18ZM12.75 10.875V14.25H13.5V15.75H10.5V14.25H11.25V12.375H10.5V10.875H12.75ZM13.125 9C13.125 9.62132 12.6213 10.125 12 10.125C11.3787 10.125 10.875 9.62132 10.875 9C10.875 8.37868 11.3787 7.875 12 7.875C12.6213 7.875 13.125 8.37868 13.125 9Z" fill="white"/>
</svg>
